<svg
  xmlns="http://www.w3.org/2000/svg"
  viewBox="0 0 1200 400"
  preserveAspectRatio="xMidYMid slice"
>
  <g
    fill="none"
    stroke="#5f6f5b"
    stroke-width="0.7"
    opacity="0.12"
  >
    <path d="M-100 320 C 200 260, 400 360, 700 300 S 1100 260, 1300 320" />
    <path d="M-100 280 C 180 240, 420 300, 680 260 S 1080 220, 1300 260" />
    <path d="M-100 240 C 220 200, 460 260, 720 220 S 1040 180, 1300 220" />
    <path d="M-100 200 C 260 160, 500 220, 760 180 S 1000 140, 1300 180" />
    <path d="M-100 160 C 300 120, 540 180, 800 140 S 960 100, 1300 140" />
    <path d="M-100 120 C 340 80, 580 140, 840 100 S 920 60, 1300 100" />
  </g>
</svg>
